<svg
    xmlns="http://www.w3.org/2000/svg" class="icon" height="520" viewBox="0 0 520 1040" width="520">
    <g transform="translate(252)">
        <circle r="500" cy="520" cx="8" fill="#999"/>
        <path d="M-87.268 334.083c-.786 1.965-1.18 26.728-.786 55.421 0 28.693-.786 53.063-1.965 53.85-1.18.785-2.752-3.145-3.145-9.041-.393-5.896-3.537-25.549-6.682-44.023-3.144-18.474-5.896-34.59-5.896-35.768 0-1.18-9.433-1.966-20.439-1.966l-20.832.787v45.988c.393 25.155-1.18 45.988-2.751 45.988-1.573 0-3.145-3.145-3.538-7.076 0-3.537-1.18-11.005-1.965-16.508-2.752-15.33-9.434-56.6-9.434-58.959 0-1.18-60.924-1.965-135.605-1.965-74.682 0-135.606.786-135.606 2.358 0 5.503 97.872 81.757 141.894 110.45 58.173 37.734 77.04 43.237 171.375 47.953 18.08 1.18 37.34 4.717 44.022 7.861 16.902 9.04 29.087 27.908 30.66 49.133 3.144 34.196-18.475 57.387-63.677 67.606-17.687 3.93-22.011 7.468-41.271 31.445l-21.618 27.121-.393 31.445-.393 31.445H-71.94l.787-26.335c.393-14.543 1.572-29.087 2.751-32.624 1.18-3.145 16.902-16.116 34.982-28.3l33.017-22.405-22.404 30.266c-22.011 29.086-43.63 66.427-36.948 62.89C-15.73 729.5 12.57 723.211 61.31 723.211c37.734 0 76.646 8.254 101.41 20.832 7.86 4.324 14.542 6.682 14.542 5.503 0-9.04-36.161-64.855-53.063-81.756-14.15-14.15-2.751-8.648 25.55 12.184 16.115 11.792 31.051 23.191 33.016 24.763 3.538 3.538 5.11 18.867 5.896 49.919l.393 12.97h96.693l-.393-30.658c0-33.017-1.965-37.34-27.121-65.64-7.861-8.648-14.15-16.902-14.15-18.082 0-1.179-11.792-4.323-26.728-7.075-53.85-9.433-73.503-31.445-73.503-81.363 0-23.584 1.966-31.445 12.971-53.063 14.937-29.48 39.306-55.815 69.965-76.254 26.728-17.688 65.248-35.375 90.404-41.664 26.728-6.29 28.3-9.434 4.324-9.827-22.798-.393-112.416-4.323-177.664-7.861-23.976-1.18-51.49-2.751-62.103-3.144-10.22-.787-19.26-1.966-20.046-2.752-1.18-.786 80.184-1.572 180.807-1.572h182.38v-37.34H169.793c-140.715 0-256.275 1.178-257.06 2.75zm142.68 34.982c0 3.144-7.467 5.11-9.433 2.358-1.179-1.965.393-3.537 3.538-3.537 3.144 0 5.896.786 5.896 1.179z"/>
    </g>
</svg>